<?xml version="1.0" encoding="UTF-8" standalone="no"?>
<!DOCTYPE svg PUBLIC "-//W3C//DTD SVG 1.1//EN" "http://www.w3.org/Graphics/SVG/1.1/DTD/svg11.dtd">
<!-- 由 Microsoft Visio, SVG Export 生成 flow.svg Page-1 -->
<svg xmlns="http://www.w3.org/2000/svg" xmlns:xlink="http://www.w3.org/1999/xlink" xmlns:ev="http://www.w3.org/2001/xml-events"
		width="22.5984in" height="8.26772in" viewBox="0 0 1627.09 595.276" xml:space="preserve" color-interpolation-filters="sRGB"
		class="st15">
	<style type="text/css">
	<![CDATA[
		.st1 {fill:#ffffff;fill-opacity:0;stroke:#000000;stroke-linecap:round;stroke-linejoin:round;stroke-width:0.75}
		.st2 {fill:#ffffff;stroke:#000000;stroke-linecap:round;stroke-linejoin:round;stroke-width:0.75}
		.st3 {fill:#ffffff;fill-opacity:0}
		.st4 {stroke:#000000;stroke-linecap:round;stroke-linejoin:round;stroke-width:0.75;visibility:hidden}
		.st5 {fill:#000000;font-family:宋体;font-size:1.00001em}
		.st6 {fill:#ffffff;stroke:#000000;stroke-linecap:round;stroke-linejoin:round;stroke-width:0.75;visibility:hidden}
		.st7 {fill:#ffffff;stroke:#000000;stroke-linecap:round;stroke-linejoin:round;stroke-width:0.24}
		.st8 {stroke:#000000;stroke-linecap:round;stroke-linejoin:round;stroke-width:0.24}
		.st9 {fill:#ffffff;stroke:#000000;stroke-linecap:round;stroke-linejoin:round;stroke-opacity:0.4;stroke-width:0.75}
		.st10 {fill:#000000;font-family:宋体;font-size:1.00001em;font-stretch:semi-expanded}
		.st11 {fill:#000000;font-family:宋体;font-size:0.666664em}
		.st12 {font-size:1em}
		.st13 {marker-end:url(#mrkr13-150);stroke:#000000;stroke-linecap:round;stroke-linejoin:round;stroke-width:0.75}
		.st14 {fill:#000000;fill-opacity:1;stroke:#000000;stroke-opacity:1;stroke-width:0.22935779816514}
		.st15 {fill:none;fill-rule:evenodd;font-size:12px;overflow:visible;stroke-linecap:square;stroke-miterlimit:3}
	]]>
	</style>

	<defs id="Patterns_And_Gradients">
		<linearGradient id="grad0-86" x1="0" y1="0" x2="1" y2="0" gradientTransform="rotate(90 0.5 0.5)">
			<stop offset="0.01" stop-color="#e8edf4" stop-opacity="1"/>
			<stop offset="0.5" stop-color="#cad7e6" stop-opacity="1"/>
			<stop offset="1" stop-color="#e8edf4" stop-opacity="1"/>
		</linearGradient>
	</defs>
	<defs id="Markers">
		<g id="lend13">
			<path d="M 3 1 L 0 0 L 3 -1 L 3 1 " style="stroke:none"/>
		</g>
		<marker id="mrkr13-150" class="st14" refX="-13.08" orient="auto" markerUnits="strokeWidth" overflow="visible">
			<use xlink:href="#lend13" transform="scale(-4.36,-4.36) "/>
		</marker>
	</defs>
	<g>
		<title>页-1</title>
		<g id="group1-1" transform="translate(28.3465,-232.068)">
			<title>CFF 容器</title>
			<g id="shape2-2">
				<title>工作表.2</title>
				<rect x="0" y="242.344" width="1315.75" height="352.932" class="st1"/>
			</g>
			<g id="shape3-4" transform="translate(0,-324.586)">
				<title>工作表.3</title>
				<path d="M0 595.28 L1315.75 595.28 L1315.75 566.93 L0 566.93 L0 595.28 Z" class="st2"/>
			</g>
		</g>
		<g id="shape4-6" transform="translate(28.3465,-232.068)">
			<title>泳道列表</title>
			<rect x="0" y="284.863" width="1315.75" height="310.412" class="st3"/>
			<rect x="0" y="284.863" width="1315.75" height="310.412" class="st4"/>
		</g>
		<g id="group6-9" transform="translate(28.3465,-232.068)">
			<title>泳道</title>
			<g id="shape7-10">
				<title>工作表.7</title>
				<rect x="0" y="510.236" width="1315.75" height="85.0394" class="st1"/>
			</g>
			<g id="shape8-12" transform="translate(-566.929,595.276) rotate(-90)">
				<title>工作表.8</title>
				<desc>client</desc>
				<path d="M0 595.28 L85.04 595.28 L85.04 566.93 L0 566.93 L0 595.28 Z" class="st2"/>
				<text x="24.52" y="584.7" class="st5">client</text>			</g>
		</g>
		<g id="group9-15" transform="translate(28.3465,-457.441)">
			<title>泳道.9</title>
			<g id="shape10-16">
				<title>工作表.10</title>
				<rect x="0" y="510.236" width="1315.75" height="85.0394" class="st1"/>
			</g>
			<g id="shape11-18" transform="translate(-566.929,595.276) rotate(-90)">
				<title>工作表.11</title>
				<desc>server</desc>
				<path d="M0 595.28 L85.04 595.28 L85.04 566.93 L0 566.93 L0 595.28 Z" class="st2"/>
				<text x="24.52" y="584.7" class="st5">server</text>			</g>
		</g>
		<g id="group15-21" transform="translate(28.3465,-317.107)">
			<title>泳道.15</title>
			<g id="shape16-22">
				<title>工作表.16</title>
				<rect x="0" y="454.942" width="1315.75" height="140.334" class="st1"/>
			</g>
			<g id="shape17-24" transform="translate(-566.929,595.276) rotate(-90)">
				<title>工作表.17</title>
				<desc>common</desc>
				<path d="M0 595.28 L140.33 595.28 L140.33 566.93 L0 566.93 L0 595.28 Z" class="st2"/>
				<text x="52.17" y="584.7" class="st5">common</text>			</g>
		</g>
		<g id="shape5-27" transform="translate(56.6929,-232.068)">
			<title>阶段列表</title>
			<rect x="0" y="270.69" width="1287.4" height="324.586" class="st6"/>
		</g>
		<g id="group12-29" transform="translate(1325.2,-232.068)">
			<title>分隔符</title>
			<g id="shape13-30">
				<title>工作表.13</title>
			</g>
			<g id="shape14-32" transform="translate(0,-310.412)">
				<title>工作表.14</title>
				<rect x="0" y="581.102" width="18.8977" height="14.1732" class="st7"/>
			</g>
		</g>
		<g id="group18-34" transform="translate(56.6929,-232.068)">
			<title>分隔符.18</title>
			<g id="shape19-35">
				<title>工作表.19</title>
				<path d="M462.05 595.28 L462.05 270.69" class="st8"/>
			</g>
			<g id="shape20-38" transform="translate(-28.3465,-310.412)">
				<title>工作表.20</title>
				<desc>preInit</desc>
				<rect x="0" y="581.102" width="490.394" height="14.1732" class="st7"/>
				<text x="446.39" y="591.79" class="st5">preInit</text>			</g>
		</g>
		<g id="group21-41" transform="translate(518.74,-232.068)">
			<title>分隔符.21</title>
			<g id="shape22-42">
				<title>工作表.22</title>
				<path d="M348.66 595.28 L348.66 270.69" class="st8"/>
			</g>
			<g id="shape23-45" transform="translate(0,-310.412)">
				<title>工作表.23</title>
				<desc>init</desc>
				<rect x="0" y="581.102" width="348.661" height="14.1732" class="st7"/>
				<text x="322.66" y="591.79" class="st5">init</text>			</g>
		</g>
		<g id="group24-48" transform="translate(867.402,-232.068)">
			<title>分隔符.24</title>
			<g id="shape25-49">
				<title>工作表.25</title>
				<path d="M113.39 595.28 L113.39 270.69" class="st8"/>
			</g>
			<g id="shape26-52" transform="translate(0,-310.412)">
				<title>工作表.26</title>
				<desc>postInit</desc>
				<rect x="0" y="581.102" width="113.386" height="14.1732" class="st7"/>
				<text x="63.38" y="591.79" class="st5">postInit</text>			</g>
		</g>
		<g id="group38-55" transform="translate(980.787,-232.068)">
			<title>分隔符.38</title>
			<g id="shape39-56">
				<title>工作表.39</title>
				<path d="M117.64 595.28 L117.64 270.69" class="st8"/>
			</g>
			<g id="shape40-59" transform="translate(0,-310.412)">
				<title>工作表.40</title>
				<desc>ServerStarting</desc>
				<rect x="0" y="581.102" width="117.638" height="14.1732" class="st7"/>
				<text x="31.64" y="591.79" class="st5">ServerStarting</text>			</g>
		</g>
		<g id="group42-62" transform="translate(1098.43,-232.068)">
			<title>分隔符.42</title>
			<g id="shape43-63">
				<title>工作表.43</title>
				<path d="M113.39 595.28 L113.39 270.69" class="st8"/>
			</g>
			<g id="shape44-66" transform="translate(0,-310.412)">
				<title>工作表.44</title>
				<desc>PlayerLoggedIn</desc>
				<rect x="0" y="581.102" width="113.386" height="14.1732" class="st7"/>
				<text x="27.38" y="591.79" class="st5">PlayerLoggedIn</text>			</g>
		</g>
		<g id="group45-69" transform="translate(1211.81,-232.068)">
			<title>分隔符.45</title>
			<g id="shape46-70">
				<title>工作表.46</title>
				<path d="M113.39 595.28 L113.39 270.69" class="st8"/>
			</g>
			<g id="shape47-73" transform="translate(0,-310.412)">
				<title>工作表.47</title>
				<desc>ReloadCommand</desc>
				<rect x="0" y="581.102" width="113.386" height="14.1732" class="st7"/>
				<text x="33.38" y="591.79" class="st5">ReloadCommand</text>			</g>
		</g>
		<g id="group50-76" transform="translate(77.9528,-346.871)">
			<title>带</title>
			<g id="group51-77">
				<title>工作表.51</title>
				<g id="shape52-78" transform="translate(2.83465,2.83465)">
					<title>工作表.52</title>
				</g>
				<g id="shape51-80">
					<path d="M0 595.28 L157.32 595.28 L314.65 595.28 L314.65 507.05 L157.32 507.05 L0 507.05 L0 595.28 Z"
							class="st9"/>
				</g>
			</g>
			<g id="group53-82" transform="translate(-3.18898,-59.5276)">
				<title>工作表.53</title>
				<desc>initConfig</desc>
				<g id="shape54-83">
					<title>工作表.54</title>
				</g>
				<g id="shape53-87">
					<path d="M0 595.28 L160.51 595.28 L321.02 595.28 L321.02 569.76 L160.51 569.76 L0 569.76 L0 595.28 Z"
							class="st2"/>
					<text x="127.51" y="586.12" class="st10">initConfig</text>				</g>
			</g>
		</g>
		<g id="group70-90" transform="translate(644.882,-346.871)">
			<title>带.70</title>
			<g id="group71-91">
				<title>工作表.71</title>
				<g id="shape72-92" transform="translate(2.83465,2.83465)">
					<title>工作表.72</title>
				</g>
				<g id="shape71-94">
					<path d="M0 595.28 L100.63 595.28 L201.26 595.28 L201.26 507.05 L100.63 507.05 L0 507.05 L0 595.28 Z"
							class="st9"/>
				</g>
			</g>
			<g id="group73-96" transform="translate(-3.18898,-59.5276)">
				<title>工作表.73</title>
				<desc>prepareConfigFiles</desc>
				<g id="shape74-97">
					<title>工作表.74</title>
				</g>
				<g id="shape73-100">
					<path d="M0 595.28 L103.82 595.28 L207.64 595.28 L207.64 569.76 L103.82 569.76 L0 569.76 L0 595.28 Z"
							class="st2"/>
					<text x="44.42" y="586.12" class="st10">prepareConfigFiles</text>				</g>
			</g>
		</g>
		<g id="shape55-103" transform="translate(86.4567,-355.375)">
			<title>流程</title>
			<desc>get config dir</desc>
			<rect x="0" y="552.756" width="70.8661" height="42.5197" class="st7"/>
			<text x="7.43" y="576.42" class="st11">get config dir</text>		</g>
		<g id="shape56-106" transform="translate(199.843,-355.375)">
			<title>流程.56</title>
			<desc>initConfigFiles</desc>
			<rect x="0" y="552.756" width="70.8661" height="42.5197" class="st7"/>
			<text x="5.43" y="576.42" class="st11">initConfigFiles</text>		</g>
		<g id="shape57-109" transform="translate(313.228,-355.375)">
			<title>流程.57</title>
			<desc>initEngine</desc>
			<rect x="0" y="552.756" width="70.8661" height="42.5197" class="st7"/>
			<text x="15.43" y="576.42" class="st11">initEngine</text>		</g>
		<g id="shape65-112" transform="translate(426.614,-355.375)">
			<title>流程.65</title>
			<desc>registerNetwork</desc>
			<rect x="0" y="552.756" width="70.8661" height="42.5197" class="st7"/>
			<text x="5.43" y="576.42" class="st11">registerNetwork</text>		</g>
		<g id="shape66-115" transform="translate(540,-253.328)">
			<title>流程.66</title>
			<desc>registerWaila</desc>
			<rect x="0" y="552.756" width="70.8661" height="42.5197" class="st7"/>
			<text x="9.43" y="576.42" class="st11">registerWaila</text>		</g>
		<g id="shape67-118" transform="translate(540,-355.375)">
			<title>流程.67</title>
			<desc>registerEvent</desc>
			<rect x="0" y="552.756" width="70.8661" height="42.5197" class="st7"/>
			<text x="9.43" y="576.42" class="st11">registerEvent</text>		</g>
		<g id="shape69-121" transform="translate(653.386,-253.328)">
			<title>流程.69</title>
			<desc>registerClientCommand</desc>
			<rect x="0" y="552.756" width="70.8661" height="42.5197" class="st7"/>
			<text x="3.43" y="571.62" class="st11">registerClientCo<tspan x="25.43" dy="1.2em" class="st12">mmand</tspan></text>		</g>
		<g id="shape75-125" transform="translate(653.386,-355.375)">
			<title>流程.75</title>
			<desc>releasePreConfigFiles</desc>
			<rect x="0" y="552.756" width="70.8661" height="42.5197" class="st7"/>
			<text x="3.43" y="571.62" class="st11">releasePreConfig<tspan x="25.43" dy="1.2em" class="st12">Files</tspan></text>		</g>
		<g id="shape76-129" transform="translate(766.772,-355.375)">
			<title>流程.76</title>
			<desc>mergeConfig</desc>
			<rect x="0" y="552.756" width="70.8661" height="42.5197" class="st7"/>
			<text x="13.43" y="576.42" class="st11">mergeConfig</text>		</g>
		<g id="shape77-132" transform="translate(888.661,-253.328)">
			<title>流程.77</title>
			<desc>registerNEI</desc>
			<rect x="0" y="552.756" width="70.8661" height="42.5197" class="st7"/>
			<text x="13.43" y="576.42" class="st11">registerNEI</text>		</g>
		<g id="shape78-135" transform="translate(1002.05,-338.367)">
			<title>流程.78</title>
			<desc>registerServerCommand</desc>
			<rect x="0" y="552.756" width="70.8661" height="42.5197" class="st7"/>
			<text x="3.43" y="571.62" class="st11">registerServerCo<tspan x="25.43" dy="1.2em" class="st12">mmand</tspan></text>		</g>
		<g id="shape80-139" transform="translate(1119.69,-478.701)">
			<title>流程.80</title>
			<desc>sendConfigString</desc>
			<rect x="0" y="552.756" width="70.8661" height="42.5197" class="st7"/>
			<text x="3.43" y="576.42" class="st11">sendConfigString</text>		</g>
		<g id="shape84-142" transform="translate(1119.69,-253.328)">
			<title>流程.84</title>
			<desc>parseConfigFiles</desc>
			<rect x="0" y="552.756" width="70.8661" height="42.5197" class="st7"/>
			<text x="3.43" y="576.42" class="st11">parseConfigFiles</text>		</g>
		<g id="shape85-145" transform="translate(157.323,-369.548)">
			<title>动态连接线</title>
			<path d="M0 588.19 L32.71 588.19" class="st13"/>
		</g>
		<g id="shape89-151" transform="translate(270.709,-369.548)">
			<title>动态连接线.89</title>
			<path d="M0 588.19 L32.71 588.19" class="st13"/>
		</g>
		<g id="shape90-156" transform="translate(384.094,-369.548)">
			<title>动态连接线.90</title>
			<path d="M0 588.19 L32.71 588.19" class="st13"/>
		</g>
		<g id="shape93-161" transform="translate(497.48,-376.635)">
			<title>动态连接线.93</title>
			<path d="M0 595.28 L10.63 595.28 L10.63 697.32 L32.71 697.32" class="st13"/>
		</g>
		<g id="shape96-166" transform="translate(610.866,-267.501)">
			<title>动态连接线.96</title>
			<path d="M0 588.19 L32.71 588.19" class="st13"/>
		</g>
		<g id="shape99-171" transform="translate(610.866,-383.722)">
			<title>动态连接线.99</title>
			<path d="M0 602.36 L32.71 602.36" class="st13"/>
		</g>
		<g id="shape100-176" transform="translate(724.252,-369.548)">
			<title>动态连接线.100</title>
			<path d="M0 588.19 L32.71 588.19" class="st13"/>
		</g>
		<g id="shape101-181" transform="translate(837.638,-376.635)">
			<title>动态连接线.101</title>
			<path d="M0 595.28 L21.26 595.28 L21.26 697.32 L41.21 697.32" class="st13"/>
		</g>
		<g id="shape102-186" transform="translate(959.528,-274.588)">
			<title>动态连接线.102</title>
			<path d="M0 595.28 L10.63 595.28 L10.63 510.24 L32.71 510.24" class="st13"/>
		</g>
		<g id="shape103-191" transform="translate(1072.91,-359.627)">
			<title>动态连接线.103</title>
			<path d="M0 595.28 L21.26 595.28 L21.26 454.94 L36.96 454.94" class="st13"/>
		</g>
		<g id="shape104-196" transform="translate(1148.03,-478.701)">
			<title>动态连接线.104</title>
			<path d="M7.09 595.28 L7.09 768.32" class="st13"/>
		</g>
		<g id="shape105-201" transform="translate(497.48,-369.548)">
			<title>动态连接线.105</title>
			<path d="M0 588.19 L32.71 588.19" class="st13"/>
		</g>
		<g id="shape106-206" transform="translate(724.252,-281.674)">
			<title>动态连接线.106</title>
			<path d="M0 602.36 L154.6 602.36" class="st13"/>
		</g>
		<g id="shape107-211" transform="translate(1233.07,-478.701)">
			<title>流程.107</title>
			<desc>mergeConfig</desc>
			<rect x="0" y="552.756" width="70.8661" height="42.5197" class="st7"/>
			<text x="13.43" y="576.42" class="st11">mergeConfig</text>		</g>
		<g id="shape108-214" transform="translate(1233.07,-492.874)">
			<title>动态连接线.108</title>
			<path d="M0 588.19 L-32.71 588.19" class="st13"/>
		</g>
	</g>
</svg>
